<svg width="34" height="30" viewBox="0 0 34 30" fill="none" xmlns="http://www.w3.org/2000/svg">
<path d="M10.625 16.875H19.125V18.75H10.625V16.875Z" fill="white"/>
<path d="M10.625 12.1875H23.375V14.0625H10.625V12.1875Z" fill="white"/>
<path d="M10.625 21.5625H15.9375V23.4375H10.625V21.5625Z" fill="white"/>
<path d="M26.5625 4.6875H23.375V3.75C23.375 3.25272 23.1511 2.77581 22.7526 2.42417C22.3541 2.07254 21.8136 1.875 21.25 1.875H12.75C12.1864 1.875 11.6459 2.07254 11.2474 2.42417C10.8489 2.77581 10.625 3.25272 10.625 3.75V4.6875H7.4375C6.87391 4.6875 6.33341 4.88504 5.9349 5.23667C5.53638 5.58831 5.3125 6.06522 5.3125 6.5625V26.25C5.3125 26.7473 5.53638 27.2242 5.9349 27.5758C6.33341 27.9275 6.87391 28.125 7.4375 28.125H26.5625C27.1261 28.125 27.6666 27.9275 28.0651 27.5758C28.4636 27.2242 28.6875 26.7473 28.6875 26.25V6.5625C28.6875 6.06522 28.4636 5.58831 28.0651 5.23667C27.6666 4.88504 27.1261 4.6875 26.5625 4.6875ZM12.75 3.75H21.25V7.5H12.75V3.75ZM26.5625 26.25H7.4375V6.5625H10.625V9.375H23.375V6.5625H26.5625V26.25Z" fill="white"/>
</svg>
