<svg width="34" height="30" viewBox="0 0 34 30" fill="none" xmlns="http://www.w3.org/2000/svg">
<path fill-rule="evenodd" clip-rule="evenodd" d="M7.37484 25.1281C9.68803 26.9208 12.2223 28.4014 15.0836 29.569C16.6162 30.1933 18.4343 30.1365 19.9036 29.4173C22.3822 28.2044 24.5394 26.7441 26.6249 25.1281C31.0453 21.7016 33.623 16.9867 33.7922 12.0139L33.9897 6.21572C34.0123 5.54111 33.9906 4.05407 33.9906 4.05407C33.0013 3.9138 32.0015 3.81082 31.0028 3.70866C27.9128 3.39082 24.8362 3.07541 22.1365 1.65891L20.2117 0.649435C19.3943 0.224604 18.4568 0 17.5012 0C16.5455 0 15.6081 0.224604 14.7906 0.649435L12.9471 1.61674C9.86 3.23514 6.09825 3.54163 2.45744 3.83839C1.63252 3.90569 0.813268 3.97299 0.0100792 4.05407C0.0100792 4.05407 -0.012599 5.55003 0.0100792 6.23436L0.207569 12.0139C0.376711 16.9867 2.95353 21.7016 7.37484 25.1281ZM1.89049 5.51436C1.89049 5.77382 1.89332 6.01301 1.89993 6.18734L2.09648 11.9669C2.2505 16.4831 4.59109 20.7853 8.64105 23.9248C10.8257 25.617 13.2079 27.0076 15.8953 28.1038C16.3791 28.2997 16.9105 28.3933 17.4451 28.3768C17.9798 28.3603 18.502 28.2342 18.9682 28.0089C21.288 26.8738 23.3328 25.4946 25.3587 23.9248C29.4087 20.7853 31.7492 16.4839 31.9033 11.9669L32.1008 6.16788C32.1064 5.98706 32.1102 5.73166 32.1102 5.45922C31.668 5.41057 31.2182 5.36435 30.759 5.31652L30.7079 5.31165C29.6582 5.21063 28.6116 5.08762 27.5689 4.94273C25.4485 4.63462 23.2298 4.13272 21.1509 3.04298L19.2261 2.03269C18.7054 1.76348 18.1091 1.62121 17.5012 1.62121C16.8933 1.62121 16.2969 1.76348 15.7762 2.03269L13.9326 3C11.7404 4.14893 9.32139 4.69381 6.99026 5.0157C5.54452 5.21516 3.98728 5.34246 2.52926 5.46246L1.89049 5.51517V5.51436Z" fill="white"/>
<path fill-rule="evenodd" clip-rule="evenodd" d="M15.1006 21.8921V7.29733H18.8803V21.8921H15.1006Z" fill="white"/>
<path fill-rule="evenodd" clip-rule="evenodd" d="M25.4958 16.2163H8.48706V12.9731H25.4958V16.2163Z" fill="white"/>
</svg>
