<svg width="28" height="29" viewBox="0 0 28 29" fill="none" xmlns="http://www.w3.org/2000/svg">
<path d="M14.9869 10.8H23.979V9.7452C23.9792 9.49563 23.9409 9.24726 23.8651 9.0072L23.8631 9C23.7228 8.56058 23.4608 8.16048 23.1018 7.8372L15.2786 0.7902C14.7167 0.284367 13.9549 0.000152786 13.1605 0H3.99651C2.93657 0 1.92004 0.379284 1.17055 1.05442C0.421059 1.72955 0 2.64522 0 3.6V25.2C0 26.1548 0.421059 27.0705 1.17055 27.7456C1.92004 28.4207 2.93657 28.8 3.99651 28.8H8.43462L8.40865 28.7532C8.09744 28.2133 7.9558 27.6071 7.99901 27H3.99651C3.46654 27 2.95827 26.8104 2.58353 26.4728C2.20878 26.1352 1.99825 25.6774 1.99825 25.2V3.6C1.99825 3.12261 2.20878 2.66477 2.58353 2.32721C2.95827 1.98964 3.46654 1.8 3.99651 1.8H11.9895V8.1C11.9895 8.81608 12.3053 9.50284 12.8674 10.0092C13.4295 10.5155 14.1919 10.8 14.9869 10.8ZM14.9869 9C14.7219 9 14.4678 8.90518 14.2804 8.7364C14.093 8.56761 13.9878 8.33869 13.9878 8.1V2.1726L21.5671 9H14.9869ZM21.6011 13.5864C21.9472 13.2699 22.3594 13.0183 22.8139 12.846C23.2684 12.6737 23.7564 12.5841 24.2495 12.5825C24.7427 12.5809 25.2313 12.6672 25.6872 12.8364C26.1432 13.0057 26.5574 13.2546 26.906 13.5688C27.2547 13.883 27.5308 14.2562 27.7186 14.667C27.9063 15.0777 28.002 15.5179 28 15.9621C27.998 16.4064 27.8984 16.8458 27.7069 17.2552C27.5155 17.6646 27.236 18.0358 26.8845 18.3474L17.2329 27.0396C16.6707 27.5463 15.9662 27.9059 15.1947 28.08L12.2013 28.7532C11.9037 28.82 11.5919 28.8163 11.2963 28.7426C11.0007 28.6688 10.7313 28.5273 10.5143 28.3321C10.2973 28.1368 10.1401 27.8942 10.0579 27.628C9.97568 27.3618 9.97132 27.081 10.0452 26.8128L10.7946 24.1164C10.9862 23.4209 11.3857 22.7859 11.9495 22.2804L21.6011 13.5864Z" fill="white"/>
</svg>
