<svg width="36" height="36" viewBox="0 0 36 36" fill="none" xmlns="http://www.w3.org/2000/svg">
<path d="M18 15.7556C20.921 15.7556 23.2889 13.4175 23.2889 10.5333C23.2889 7.64919 20.921 5.31113 18 5.31113C15.079 5.31113 12.7111 7.64919 12.7111 10.5333C12.7111 13.4175 15.079 15.7556 18 15.7556Z" fill="white"/>
<path d="M9.97782 11.0556H10.5112V10.5778C10.5144 9.18845 10.9064 7.82775 11.6427 6.64959C12.379 5.47144 13.4304 4.52285 14.6778 3.91112C14.3085 3.06064 13.7158 2.32605 12.9625 1.78539C12.2093 1.24472 11.3236 0.91817 10.3997 0.840412C9.47577 0.762654 8.54802 0.936594 7.715 1.34376C6.88198 1.75092 6.17479 2.37611 5.66855 3.15291C5.1623 3.92971 4.87591 4.82913 4.83978 5.75563C4.80364 6.68212 5.01913 7.60111 5.46334 8.41498C5.90755 9.22885 6.56391 9.90721 7.36269 10.378C8.16147 10.8488 9.07285 11.0945 10 11.0889L9.97782 11.0556Z" fill="white"/>
<path d="M25.5111 10.5333V11.0111H26.0445C26.9593 11.0019 27.8548 10.7463 28.6366 10.2711C29.4184 9.79591 30.0576 9.11875 30.487 8.31089C30.9164 7.50303 31.12 6.59436 31.0765 5.68051C31.033 4.76665 30.744 3.88143 30.2398 3.11801C29.7356 2.3546 29.0349 1.74122 28.2115 1.34244C27.3881 0.943666 26.4725 0.774243 25.5609 0.852005C24.6493 0.929767 23.7755 1.25184 23.0316 1.78432C22.2876 2.3168 21.701 3.03999 21.3334 3.87778C22.5812 4.4871 23.6337 5.43329 24.372 6.60942C25.1102 7.78554 25.5048 9.14471 25.5111 10.5333Z" fill="white"/>
<path d="M22.7667 16.2778C24.9759 16.7151 27.112 17.4632 29.1112 18.5C29.3928 18.6547 29.6479 18.8535 29.8667 19.0889H35.7778V15.2889C35.7789 15.1432 35.7402 14.9999 35.6657 14.8746C35.5913 14.7492 35.4841 14.6466 35.3556 14.5778C32.4758 13.0715 29.2723 12.2897 26.0223 12.3H25.2889C24.9039 13.8653 24.0183 15.262 22.7667 16.2778Z" fill="white"/>
<path d="M5.25559 21.2445C5.25356 20.6849 5.40468 20.1354 5.69259 19.6555C5.98049 19.1757 6.39421 18.7838 6.88892 18.5222C8.88812 17.4855 11.0242 16.7373 13.2334 16.3C11.9879 15.2928 11.1028 13.9087 10.7111 12.3556H9.97781C6.72784 12.3452 3.52431 13.127 0.644473 14.6333C0.515994 14.7022 0.408757 14.8048 0.334345 14.9301C0.259933 15.0554 0.221173 15.1987 0.222251 15.3445V22.4445H5.25559V21.2445Z" fill="white"/>
<path d="M21.8445 27.6556H28.4667V29.2111H21.8445V27.6556Z" fill="white"/>
<path d="M34.4556 21.6222H26.8223V20.5111C26.8223 20.2164 26.7052 19.9338 26.4968 19.7255C26.2884 19.5171 26.0058 19.4 25.7111 19.4C25.4165 19.4 25.1338 19.5171 24.9255 19.7255C24.7171 19.9338 24.6 20.2164 24.6 20.5111V21.6222H22.4445V18.4778C20.9826 18.1708 19.4937 18.0108 18 18C14.4931 17.9854 11.0363 18.8325 7.93336 20.4667C7.79515 20.5384 7.67946 20.6469 7.59906 20.7802C7.51867 20.9136 7.4767 21.0665 7.4778 21.2222V27.4556H15.3778V34.2222C15.3778 34.5169 15.4949 34.7995 15.7032 35.0079C15.9116 35.2163 16.1942 35.3334 16.4889 35.3334H34.4556C34.7503 35.3334 35.0329 35.2163 35.2413 35.0079C35.4496 34.7995 35.5667 34.5169 35.5667 34.2222V22.7334C35.5667 22.4387 35.4496 22.1561 35.2413 21.9477C35.0329 21.7393 34.7503 21.6222 34.4556 21.6222ZM33.3445 33.1334H17.6V23.8445H24.6V24.8556C24.6 25.1503 24.7171 25.4329 24.9255 25.6412C25.1338 25.8496 25.4165 25.9667 25.7111 25.9667C26.0058 25.9667 26.2884 25.8496 26.4968 25.6412C26.7052 25.4329 26.8223 25.1503 26.8223 24.8556V23.8445H33.3445V33.1334Z" fill="white"/>
</svg>
