<svg width="36" height="36" viewBox="0 0 36 36" fill="none" xmlns="http://www.w3.org/2000/svg">
<path d="M10.5 3.375H7.875C7.47718 3.375 7.09564 3.53304 6.81434 3.81434C6.53304 4.09564 6.375 4.47718 6.375 4.875V31.125C6.375 31.5228 6.53304 31.9044 6.81434 32.1857C7.09564 32.467 7.47718 32.625 7.875 32.625H28.125C28.5228 32.625 28.9044 32.467 29.1857 32.1857C29.467 31.9044 29.625 31.5228 29.625 31.125V4.875C29.625 4.47718 29.467 4.09564 29.1857 3.81434C28.9044 3.53304 28.5228 3.375 28.125 3.375H18" stroke="white" stroke-linecap="round" stroke-linejoin="round"/>
<path d="M10.5 23.25H25.5M9 3.375L10.0605 2.3145C10.3417 2.03318 10.7232 1.87508 11.121 1.875H17.25C17.4489 1.875 17.6397 1.95402 17.7803 2.09467C17.921 2.23532 18 2.42609 18 2.625V21.375L14.25 17.625L10.5 21.375V3.375H9ZM10.5 28.5H25.5H10.5ZM18 7.5H25.5H18ZM18 12.75H25.5H18ZM18 18H25.5H18Z" stroke="white" stroke-linecap="round" stroke-linejoin="round"/>
</svg>
