<svg width="34" height="30" viewBox="0 0 34 30" fill="none" xmlns="http://www.w3.org/2000/svg">
<path fill-rule="evenodd" clip-rule="evenodd" d="M10 15.8333H8V17.5H10V15.8333ZM8 14.1667C7.46957 14.1667 6.96086 14.3423 6.58579 14.6548C6.21071 14.9674 6 15.3913 6 15.8333V17.5C6 17.942 6.21071 18.366 6.58579 18.6785C6.96086 18.9911 7.46957 19.1667 8 19.1667H10C10.5304 19.1667 11.0391 18.9911 11.4142 18.6785C11.7893 18.366 12 17.942 12 17.5V15.8333C12 15.3913 11.7893 14.9674 11.4142 14.6548C11.0391 14.3423 10.5304 14.1667 10 14.1667H8Z" fill="white"/>
<path fill-rule="evenodd" clip-rule="evenodd" d="M18 15.8333H16V17.5H18V15.8333ZM16 14.1667C15.4696 14.1667 14.9609 14.3423 14.5858 14.6548C14.2107 14.9674 14 15.3913 14 15.8333V17.5C14 17.942 14.2107 18.366 14.5858 18.6785C14.9609 18.9911 15.4696 19.1667 16 19.1667H18C18.5304 19.1667 19.0391 18.9911 19.4142 18.6785C19.7893 18.366 20 17.942 20 17.5V15.8333C20 15.3913 19.7893 14.9674 19.4142 14.6548C19.0391 14.3423 18.5304 14.1667 18 14.1667H16Z" fill="white"/>
<path fill-rule="evenodd" clip-rule="evenodd" d="M26 15.8333H24V17.5H26V15.8333ZM24 14.1667C23.4696 14.1667 22.9609 14.3423 22.5858 14.6548C22.2107 14.9674 22 15.3913 22 15.8333V17.5C22 17.942 22.2107 18.366 22.5858 18.6785C22.9609 18.9911 23.4696 19.1667 24 19.1667H26C26.5304 19.1667 27.0391 18.9911 27.4142 18.6785C27.7893 18.366 28 17.942 28 17.5V15.8333C28 15.3913 27.7893 14.9674 27.4142 14.6548C27.0391 14.3423 26.5304 14.1667 26 14.1667H24Z" fill="white"/>
<path fill-rule="evenodd" clip-rule="evenodd" d="M10 22.5H8V24.1667H10V22.5ZM8 20.8333C7.46957 20.8333 6.96086 21.0089 6.58579 21.3215C6.21071 21.6341 6 22.058 6 22.5V24.1667C6 24.6087 6.21071 25.0326 6.58579 25.3452C6.96086 25.6577 7.46957 25.8333 8 25.8333H10C10.5304 25.8333 11.0391 25.6577 11.4142 25.3452C11.7893 25.0326 12 24.6087 12 24.1667V22.5C12 22.058 11.7893 21.6341 11.4142 21.3215C11.0391 21.0089 10.5304 20.8333 10 20.8333H8Z" fill="white"/>
<path fill-rule="evenodd" clip-rule="evenodd" d="M18 22.5H16V24.1667H18V22.5ZM16 20.8333C15.4696 20.8333 14.9609 21.0089 14.5858 21.3215C14.2107 21.6341 14 22.058 14 22.5V24.1667C14 24.6087 14.2107 25.0326 14.5858 25.3452C14.9609 25.6577 15.4696 25.8333 16 25.8333H18C18.5304 25.8333 19.0391 25.6577 19.4142 25.3452C19.7893 25.0326 20 24.6087 20 24.1667V22.5C20 22.058 19.7893 21.6341 19.4142 21.3215C19.0391 21.0089 18.5304 20.8333 18 20.8333H16Z" fill="white"/>
<path fill-rule="evenodd" clip-rule="evenodd" d="M26 22.5H24V24.1667H26V22.5ZM24 20.8333C23.4696 20.8333 22.9609 21.0089 22.5858 21.3215C22.2107 21.6341 22 22.058 22 22.5V24.1667C22 24.6087 22.2107 25.0326 22.5858 25.3452C22.9609 25.6577 23.4696 25.8333 24 25.8333H26C26.5304 25.8333 27.0391 25.6577 27.4142 25.3452C27.7893 25.0326 28 24.6087 28 24.1667V22.5C28 22.058 27.7893 21.6341 27.4142 21.3215C27.0391 21.0089 26.5304 20.8333 26 20.8333H24Z" fill="white"/>
<path fill-rule="evenodd" clip-rule="evenodd" d="M3 4.16667C2.73478 4.16667 2.48043 4.25446 2.29289 4.41074C2.10536 4.56702 2 4.77899 2 5V27.5C2 27.721 2.10536 27.933 2.29289 28.0893C2.48043 28.2455 2.73478 28.3333 3 28.3333H31C31.55 28.3333 32 27.9592 32 27.4983V5.00167C32 4.54 31.55 4.16667 31 4.16667H28V2.5H31C32.658 2.5 34 3.6225 34 5.00167V27.4983C34 28.1615 33.684 28.7976 33.1214 29.2667C32.5589 29.7358 31.7958 29.9996 31 30H3C2.20435 30 1.44129 29.7366 0.87868 29.2678C0.316071 28.7989 0 28.163 0 27.5V5C0 4.33696 0.316071 3.70107 0.87868 3.23223C1.44129 2.76339 2.20435 2.5 3 2.5H8V4.16667H3ZM24 4.16667H12V2.5H24V4.16667Z" fill="white"/>
<path fill-rule="evenodd" clip-rule="evenodd" d="M32 11.6667H2V10H32V11.6667Z" fill="white"/>
<path d="M8 0.833333C8 0.61232 8.10536 0.400358 8.29289 0.244078C8.48043 0.0877975 8.73478 0 9 0C9.26522 0 9.51957 0.0877975 9.70711 0.244078C9.89464 0.400358 10 0.61232 10 0.833333V6.66667C10 6.88768 9.89464 7.09964 9.70711 7.25592C9.51957 7.4122 9.26522 7.5 9 7.5C8.73478 7.5 8.48043 7.4122 8.29289 7.25592C8.10536 7.09964 8 6.88768 8 6.66667V0.833333Z" fill="white"/>
<path d="M24 0.833333C24 0.61232 24.1054 0.400358 24.2929 0.244078C24.4804 0.0877975 24.7348 0 25 0C25.2652 0 25.5196 0.0877975 25.7071 0.244078C25.8946 0.400358 26 0.61232 26 0.833333V6.66667C26 6.88768 25.8946 7.09964 25.7071 7.25592C25.5196 7.4122 25.2652 7.5 25 7.5C24.7348 7.5 24.4804 7.4122 24.2929 7.25592C24.1054 7.09964 24 6.88768 24 6.66667V0.833333Z" fill="white"/>
</svg>
