<svg width="23" height="26" viewBox="0 0 23 26" fill="none" xmlns="http://www.w3.org/2000/svg">
<path d="M20.4444 15.0618V10.4C20.4444 6.2179 17.6525 2.6949 13.8703 1.6354C13.4959 0.676 12.581 0 11.5 0C10.419 0 9.50411 0.676 9.12972 1.6354C5.3475 2.6962 2.55556 6.2179 2.55556 10.4V15.0618L0.37439 17.2809C0.255502 17.4014 0.161218 17.5447 0.0969647 17.7024C0.0327113 17.8601 -0.000242074 18.0293 1.33869e-06 18.2V20.8C1.33869e-06 21.1448 0.134624 21.4754 0.374254 21.7192C0.613883 21.963 0.938891 22.1 1.27778 22.1H21.7222C22.0611 22.1 22.3861 21.963 22.6257 21.7192C22.8654 21.4754 23 21.1448 23 20.8V18.2C23.0002 18.0293 22.9673 17.8601 22.903 17.7024C22.8388 17.5447 22.7445 17.4014 22.6256 17.2809L20.4444 15.0618ZM20.4444 19.5H2.55556V18.7382L4.73672 16.5191C4.85561 16.3986 4.94989 16.2553 5.01415 16.0976C5.0784 15.9399 5.11135 15.7707 5.11111 15.6V10.4C5.11111 6.8159 7.97717 3.9 11.5 3.9C15.0228 3.9 17.8889 6.8159 17.8889 10.4V15.6C17.8889 15.9458 18.0231 16.276 18.2633 16.5191L20.4444 18.7382V19.5ZM11.5 26C12.2913 26.001 13.0633 25.7512 13.7086 25.2852C14.3539 24.8192 14.8405 24.1603 15.1008 23.4H7.89922C8.15946 24.1603 8.64605 24.8192 9.29137 25.2852C9.93669 25.7512 10.7087 26.001 11.5 26Z" fill="white"/>
</svg>
