<svg width="45" height="45" viewBox="0 0 45 45" fill="none" xmlns="http://www.w3.org/2000/svg">
<path d="M43.2346 36.7236C42.1058 34.1976 40.4676 31.9031 38.4115 29.968C36.3615 28.0273 33.9332 26.4799 31.2606 25.4114C31.2366 25.4001 31.2127 25.3945 31.1888 25.3832C34.9168 22.8392 37.3403 18.6954 37.3403 14.0201C37.3403 6.27513 30.6981 0 22.5 0C14.3019 0 7.65967 6.27513 7.65967 14.0201C7.65967 18.6954 10.0832 22.8392 13.8112 25.3888C13.7873 25.4001 13.7634 25.4058 13.7394 25.4171C11.0586 26.4856 8.65302 28.0176 6.58854 29.9736C4.53429 31.9102 2.89643 34.2044 1.76543 36.7293C0.654334 39.2012 0.0550943 41.8514 0.000149636 44.5364C-0.00144752 44.5968 0.00975469 44.6568 0.0330965 44.713C0.0564384 44.7692 0.0914474 44.8204 0.136061 44.8636C0.180674 44.9068 0.233989 44.9411 0.292864 44.9645C0.351739 44.988 0.414984 45 0.47887 45H4.06927C4.33257 45 4.54201 44.8021 4.54799 44.559C4.66767 40.1947 6.52271 36.1074 9.80195 33.0094C13.1949 29.804 17.7008 28.0402 22.5 28.0402C27.2992 28.0402 31.8051 29.804 35.1981 33.0094C38.4773 36.1074 40.3323 40.1947 40.452 44.559C40.458 44.8078 40.6674 45 40.9307 45H44.5211C44.585 45 44.6483 44.988 44.7071 44.9645C44.766 44.9411 44.8193 44.9068 44.8639 44.8636C44.9086 44.8204 44.9436 44.7692 44.9669 44.713C44.9902 44.6568 45.0014 44.5968 44.9999 44.5364C44.94 41.8342 44.3476 39.2054 43.2346 36.7236ZM22.5 23.7437C19.7533 23.7437 17.1683 22.7318 15.2235 20.8945C13.2787 19.0572 12.2075 16.615 12.2075 14.0201C12.2075 11.4253 13.2787 8.98304 15.2235 7.14573C17.1683 5.30842 19.7533 4.29648 22.5 4.29648C25.2467 4.29648 27.8317 5.30842 29.7765 7.14573C31.7213 8.98304 32.7925 11.4253 32.7925 14.0201C32.7925 16.615 31.7213 19.0572 29.7765 20.8945C27.8317 22.7318 25.2467 23.7437 22.5 23.7437Z" fill="#34AACF"/>
</svg>
