<svg width="150" height="150" viewBox="0 0 150 150" fill="none" xmlns="http://www.w3.org/2000/svg">
<path d="M75 12.5C40.5 12.5 12.5 40.5 12.5 75C12.5 109.5 40.5 137.5 75 137.5C109.5 137.5 137.5 109.5 137.5 75C137.5 40.5 109.5 12.5 75 12.5ZM75 31.25C85.375 31.25 93.75 39.625 93.75 50C93.75 60.375 85.375 68.75 75 68.75C64.625 68.75 56.25 60.375 56.25 50C56.25 39.625 64.625 31.25 75 31.25ZM75 120C67.5741 120 60.2637 118.162 53.7205 114.651C47.1773 111.139 41.6049 106.063 37.5 99.875C37.6875 87.4375 62.5 80.625 75 80.625C87.4375 80.625 112.312 87.4375 112.5 99.875C108.395 106.063 102.823 111.139 96.2795 114.651C89.7363 118.162 82.4259 120 75 120Z" fill="#3AA0DA"/>
</svg>
