<svg width="34" height="42" viewBox="0 0 34 42" fill="none" xmlns="http://www.w3.org/2000/svg">
<path d="M17 0.166626C11.2563 0.166626 6.58334 4.83954 6.58334 10.5833V16.8333H4.50001C2.20209 16.8333 0.333344 18.702 0.333344 21V37.6666C0.333344 39.9645 2.20209 41.8333 4.50001 41.8333H29.5C31.7979 41.8333 33.6667 39.9645 33.6667 37.6666V21C33.6667 18.702 31.7979 16.8333 29.5 16.8333H27.4167V10.5833C27.4167 4.83954 22.7438 0.166626 17 0.166626ZM29.5 21L29.5042 37.6666H4.50001V21H29.5ZM10.75 16.8333V10.5833C10.75 7.13746 13.5542 4.33329 17 4.33329C20.4458 4.33329 23.25 7.13746 23.25 10.5833V16.8333H10.75Z" fill="#34AACF"/>
</svg>
