<svg width="40" height="40" viewBox="0 0 40 40" fill="none" xmlns="http://www.w3.org/2000/svg">
<path d="M20 17.7556C22.921 17.7556 25.2889 15.4175 25.2889 12.5333C25.2889 9.64918 22.921 7.31111 20 7.31111C17.079 7.31111 14.7111 9.64918 14.7111 12.5333C14.7111 15.4175 17.079 17.7556 20 17.7556Z" fill="white"/>
<path d="M11.9778 13.0556H12.5112V12.5778C12.5144 11.1884 12.9064 9.82773 13.6427 8.64958C14.379 7.47142 15.4304 6.52283 16.6778 5.91111C16.3085 5.06062 15.7158 4.32604 14.9625 3.78537C14.2093 3.24471 13.3236 2.91815 12.3997 2.8404C11.4758 2.76264 10.548 2.93658 9.715 3.34374C8.88198 3.75091 8.17479 4.37609 7.66855 5.15289C7.1623 5.9297 6.87591 6.82911 6.83978 7.75561C6.80364 8.68211 7.01913 9.6011 7.46334 10.415C7.90755 11.2288 8.56391 11.9072 9.36269 12.378C10.1615 12.8488 11.0729 13.0945 12 13.0889L11.9778 13.0556Z" fill="white"/>
<path d="M27.5111 12.5333V13.0111H28.0445C28.9593 13.0019 29.8548 12.7463 30.6366 12.2711C31.4184 11.7959 32.0576 11.1188 32.487 10.3109C32.9164 9.50303 33.12 8.59436 33.0765 7.68051C33.033 6.76665 32.744 5.88143 32.2398 5.11801C31.7356 4.3546 31.0349 3.74122 30.2115 3.34244C29.3881 2.94367 28.4725 2.77424 27.5609 2.852C26.6493 2.92977 25.7755 3.25184 25.0316 3.78432C24.2876 4.3168 23.701 5.03999 23.3334 5.87778C24.5812 6.4871 25.6337 7.43329 26.372 8.60942C27.1102 9.78554 27.5048 11.1447 27.5111 12.5333Z" fill="white"/>
<path d="M24.7667 18.2778C26.9759 18.715 29.112 19.4632 31.1112 20.5C31.3928 20.6547 31.6479 20.8535 31.8667 21.0889H37.7778V17.2889C37.7789 17.1431 37.7402 16.9999 37.6657 16.8745C37.5913 16.7492 37.4841 16.6466 37.3556 16.5778C34.4758 15.0715 31.2723 14.2896 28.0223 14.3H27.2889C26.9039 15.8652 26.0183 17.2619 24.7667 18.2778Z" fill="white"/>
<path d="M7.25559 23.2444C7.25356 22.6849 7.40468 22.1354 7.69259 21.6555C7.98049 21.1757 8.39421 20.7838 8.88892 20.5222C10.8881 19.4855 13.0242 18.7373 15.2334 18.3C13.9879 17.2928 13.1028 15.9087 12.7111 14.3556H11.9778C8.72784 14.3452 5.52431 15.127 2.64447 16.6333C2.51599 16.7022 2.40876 16.8048 2.33435 16.9301C2.25993 17.0554 2.22117 17.1987 2.22225 17.3444V24.4444H7.25559V23.2444Z" fill="white"/>
<path d="M23.8445 29.6555H30.4667V31.2111H23.8445V29.6555Z" fill="white"/>
<path d="M36.4556 23.6222H28.8223V22.5111C28.8223 22.2164 28.7052 21.9338 28.4968 21.7254C28.2884 21.5171 28.0058 21.4 27.7111 21.4C27.4165 21.4 27.1338 21.5171 26.9255 21.7254C26.7171 21.9338 26.6 22.2164 26.6 22.5111V23.6222H24.4445V20.4778C22.9826 20.1708 21.4937 20.0107 20 20C16.4931 19.9854 13.0363 20.8324 9.93336 22.4667C9.79515 22.5384 9.67946 22.6469 9.59906 22.7802C9.51867 22.9136 9.4767 23.0665 9.4778 23.2222V29.4556H17.3778V36.2222C17.3778 36.5169 17.4949 36.7995 17.7032 37.0079C17.9116 37.2163 18.1942 37.3333 18.4889 37.3333H36.4556C36.7503 37.3333 37.0329 37.2163 37.2413 37.0079C37.4496 36.7995 37.5667 36.5169 37.5667 36.2222V24.7333C37.5667 24.4387 37.4496 24.156 37.2413 23.9477C37.0329 23.7393 36.7503 23.6222 36.4556 23.6222ZM35.3445 35.1333H19.6V25.8444H26.6V26.8556C26.6 27.1502 26.7171 27.4329 26.9255 27.6412C27.1338 27.8496 27.4165 27.9667 27.7111 27.9667C28.0058 27.9667 28.2884 27.8496 28.4968 27.6412C28.7052 27.4329 28.8223 27.1502 28.8223 26.8556V25.8444H35.3445V35.1333Z" fill="white"/>
</svg>
