<svg width="38" height="30" viewBox="0 0 38 30" fill="none" xmlns="http://www.w3.org/2000/svg">
<path d="M34.5469 14.0625L37.2188 11.3906C37.5879 11.0215 37.5879 10.4238 37.2188 10.0547L35.8828 8.71875C35.5137 8.34961 34.916 8.34961 34.5469 8.71875L31.875 11.3906L29.2031 8.71875C28.834 8.34961 28.2363 8.34961 27.8672 8.71875L26.5312 10.0547C26.1621 10.4238 26.1621 11.0215 26.5312 11.3906L29.2031 14.0625L26.5312 16.7344C26.1621 17.1035 26.1621 17.7012 26.5312 18.0703L27.8672 19.4062C28.2363 19.7754 28.834 19.7754 29.2031 19.4062L31.875 16.7344L34.5469 19.4062C34.916 19.7754 35.5137 19.7754 35.8828 19.4062L37.2188 18.0703C37.5879 17.7012 37.5879 17.1035 37.2188 16.7344L34.5469 14.0625ZM13.125 15C17.2676 15 20.625 11.6426 20.625 7.5C20.625 3.35742 17.2676 0 13.125 0C8.98242 0 5.625 3.35742 5.625 7.5C5.625 11.6426 8.98242 15 13.125 15ZM18.375 16.875H17.3965C16.0957 17.4727 14.6484 17.8125 13.125 17.8125C11.6016 17.8125 10.1602 17.4727 8.85352 16.875H7.875C3.52734 16.875 0 20.4023 0 24.75V27.1875C0 28.7402 1.25977 30 2.8125 30H23.4375C24.9902 30 26.25 28.7402 26.25 27.1875V24.75C26.25 20.4023 22.7227 16.875 18.375 16.875Z" fill="#F24E1E"/>
</svg>
