<svg width="30" height="30" viewBox="0 0 30 30" fill="none" xmlns="http://www.w3.org/2000/svg">
<path d="M3.33333 30H26.6667C27.5507 30 28.3986 29.6488 29.0237 29.0237C29.6488 28.3986 30 27.5507 30 26.6667V8.33333L21.6667 0H3.33333C2.44928 0 1.60143 0.351189 0.976311 0.976311C0.351189 1.60143 0 2.44928 0 3.33333V26.6667C0 27.5507 0.351189 28.3986 0.976311 29.0237C1.60143 29.6488 2.44928 30 3.33333 30ZM6.66667 3.33333H13.3333V6.66667H16.6667V3.33333H20V10H6.66667V3.33333ZM6.66667 16.6667H23.3333V26.6667H6.66667V16.6667Z" fill="white"/>
</svg>
