<svg width="38" height="30" viewBox="0 0 38 30" fill="none" xmlns="http://www.w3.org/2000/svg">
<path d="M13.125 15C17.2676 15 20.625 11.6426 20.625 7.5C20.625 3.35742 17.2676 0 13.125 0C8.98242 0 5.625 3.35742 5.625 7.5C5.625 11.6426 8.98242 15 13.125 15ZM18.375 16.875H17.3965C16.0957 17.4727 14.6484 17.8125 13.125 17.8125C11.6016 17.8125 10.1602 17.4727 8.85352 16.875H7.875C3.52734 16.875 0 20.4023 0 24.75V27.1875C0 28.7402 1.25977 30 2.8125 30H18.9199C18.7793 29.6016 18.7207 29.1797 18.7676 28.752L19.166 25.1836L19.2363 24.5332L19.6992 24.0703L24.2285 19.541C22.793 17.918 20.7129 16.875 18.375 16.875ZM21.0293 25.3887L20.6309 28.9629C20.5664 29.5605 21.0703 30.0645 21.6621 29.9941L25.2305 29.5957L33.3106 21.5156L29.1094 17.3145L21.0293 25.3887ZM37.0898 15.7559L34.8691 13.5352C34.3242 12.9902 33.4336 12.9902 32.8887 13.5352L30.6738 15.75L30.4336 15.9902L34.6406 20.1914L37.0898 17.7422C37.6348 17.1914 37.6348 16.3066 37.0898 15.7559Z" fill="#FFC700"/>
</svg>
