<svg width="37" height="30" viewBox="0 0 37 30" fill="none" xmlns="http://www.w3.org/2000/svg">
<path d="M13.125 15C17.2676 15 20.625 11.6426 20.625 7.5C20.625 3.35742 17.2676 0 13.125 0C8.98242 0 5.625 3.35742 5.625 7.5C5.625 11.6426 8.98242 15 13.125 15ZM18.375 16.875H17.3965C16.0957 17.4727 14.6484 17.8125 13.125 17.8125C11.6016 17.8125 10.1602 17.4727 8.85352 16.875H7.875C3.52734 16.875 0 20.4023 0 24.75V27.1875C0 28.7402 1.25977 30 2.8125 30H23.4375C24.9902 30 26.25 28.7402 26.25 27.1875V24.75C26.25 20.4023 22.7227 16.875 18.375 16.875ZM37.3008 9.35156L35.6719 7.70508C35.4023 7.42969 34.9629 7.42969 34.6875 7.69922L28.5469 13.793L25.8809 11.1094C25.6113 10.834 25.1719 10.834 24.8965 11.1035L23.25 12.7383C22.9746 13.0078 22.9746 13.4473 23.2441 13.7227L28.0313 18.5449C28.3008 18.8203 28.7402 18.8203 29.0156 18.5508L37.2949 10.3359C37.5645 10.0605 37.5703 9.62109 37.3008 9.35156Z" fill="#699BF7"/>
</svg>
