<svg width="50" height="50" viewBox="0 0 50 50" fill="none" xmlns="http://www.w3.org/2000/svg">
<g clip-path="url(#clip0_54_22)">
<path d="M10 9.375C12.0703 9.375 13.75 7.27539 13.75 4.6875C13.75 2.09961 12.0703 0 10 0C7.92968 0 6.25 2.09961 6.25 4.6875C6.25 7.27539 7.92968 9.375 10 9.375ZM40 9.375C42.0703 9.375 43.75 7.27539 43.75 4.6875C43.75 2.09961 42.0703 0 40 0C37.9297 0 36.25 2.09961 36.25 4.6875C36.25 7.27539 37.9297 9.375 40 9.375ZM49.8203 45.7129L46.3828 34.9707L43.1719 39.502L43.0156 41.2793L45.1797 48.0371C45.5703 49.2578 46.5078 50 47.5 50C47.8125 50 48.125 49.9316 48.4297 49.7754C49.7109 49.1309 50.3359 47.3145 49.8203 45.7129ZM47.1484 25.2246L45.7031 17.3926C45.3437 15.4395 44.25 13.7988 42.7734 13.0078C41.3281 12.2266 39.7266 12.3535 38.3906 13.3301C36.6172 14.6387 35.2891 16.6992 34.6328 19.1309L33.75 22.4414L32.5 23.4375V14.0625C32.5 13.2031 31.9375 12.5 31.25 12.5H18.75C18.0625 12.5 17.5 13.2031 17.5 14.0625V23.4375L16.2422 22.4414L15.3594 19.1309C14.7109 16.6895 13.375 14.6387 11.6016 13.3301C10.2578 12.3535 8.66406 12.2266 7.21875 13.0078C5.74218 13.7988 4.64843 15.4395 4.28906 17.3926L2.85156 25.2246C2.49218 27.1777 2.90625 29.248 3.97656 30.7617L9.22656 38.1738L10.0156 47.2168C10.1562 48.8086 11.2344 50 12.5 50C12.5937 50 12.6797 49.9902 12.7734 49.9805C14.1484 49.7949 15.1328 48.252 14.9844 46.5332L14.1953 37.4707C14.0781 36.2012 13.6562 35.0195 12.9766 34.0527L9.59375 29.2676L10.9687 22.4023L11.5 24.3945C11.8203 25.6152 12.4297 26.6797 13.4141 27.5781L17.4062 30.752C17.7656 31.0352 18.3516 31.2012 18.75 31.2402H31.25C31.6484 31.2012 32.2344 31.0352 32.5938 30.752L36.5859 27.5781C37.5703 26.6797 38.1797 25.625 38.5 24.3945L39.0312 22.4023L40.4062 29.2676L37.0234 34.0527C36.3438 35.0195 35.9219 36.2012 35.8047 37.4707L35.0156 46.5332C34.8672 48.252 35.8594 49.7949 37.2266 49.9805C37.3203 49.9902 37.4062 50 37.5 50C38.7578 50 39.8438 48.8184 39.9844 47.2168L40.7734 38.1738L46.0234 30.7617C47.0859 29.248 47.5078 27.1777 47.1484 25.2246ZM3.61718 34.9707L0.179683 45.7129C-0.335942 47.3145 0.289058 49.1309 1.57031 49.7754C2.88281 50.4199 4.3125 49.6094 4.82031 48.0371L6.98437 41.2793L6.82812 39.502L3.61718 34.9707Z" fill="white"/>
</g>
<defs>
<clipPath id="clip0_54_22">
<rect width="50" height="50" fill="white"/>
</clipPath>
</defs>
</svg>
