<svg width="52" height="52" viewBox="0 0 52 52" fill="none" xmlns="http://www.w3.org/2000/svg">
<path d="M37.0886 45.38L35.5848 32.57C35.3716 30.7556 34.5428 29.0865 33.2542 27.8765C31.9655 26.6666 30.3058 25.9993 28.5871 26H23.4081C21.6903 26.0005 20.0317 26.6684 18.744 27.8782C17.4563 29.088 16.6282 30.7564 16.4152 32.57L14.909 45.38C14.8263 46.0838 14.8853 46.7982 15.0821 47.4759C15.2789 48.1535 15.6089 48.7789 16.0503 49.3104C16.4916 49.842 17.0342 50.2675 17.6421 50.5588C18.2499 50.8501 18.909 51.0005 19.5756 51H32.4243C33.0907 51.0002 33.7496 50.8495 34.3571 50.558C34.9647 50.2666 35.507 49.841 35.9481 49.3095C36.3892 48.778 36.719 48.1528 36.9157 47.4753C37.1123 46.7978 37.1713 46.0836 37.0886 45.38Z" fill="white" stroke="white" stroke-width="2" stroke-linecap="round" stroke-linejoin="round"/>
<path d="M26 16C29.8933 16 33.0494 12.6421 33.0494 8.5C33.0494 4.35786 29.8933 1 26 1C22.1067 1 18.9506 4.35786 18.9506 8.5C18.9506 12.6421 22.1067 16 26 16Z" fill="white" stroke="white" stroke-width="2"/>
<path d="M7.20165 23.5C9.79716 23.5 11.9012 21.2614 11.9012 18.5C11.9012 15.7386 9.79716 13.5 7.20165 13.5C4.60615 13.5 2.50208 15.7386 2.50208 18.5C2.50208 21.2614 4.60615 23.5 7.20165 23.5Z" fill="white" stroke="white" stroke-width="2"/>
<path d="M44.7983 23.5C47.3938 23.5 49.4979 21.2614 49.4979 18.5C49.4979 15.7386 47.3938 13.5 44.7983 13.5C42.2028 13.5 40.0988 15.7386 40.0988 18.5C40.0988 21.2614 42.2028 23.5 44.7983 23.5Z" fill="white" stroke="white" stroke-width="2"/>
<path d="M7.20167 31H6.48264C5.37016 30.9999 4.2937 31.4196 3.44477 32.1845C2.59585 32.9495 2.02951 34.01 1.8465 35.1775L1.06402 40.1775C0.951731 40.8939 0.987469 41.6277 1.16875 42.3278C1.35003 43.028 1.6725 43.6778 2.11374 44.2319C2.55497 44.7861 3.10438 45.2313 3.72373 45.5366C4.34309 45.842 5.01754 46.0001 5.70016 46H14.251" fill="white"/>
<path d="M7.20167 31H6.48264C5.37016 30.9999 4.2937 31.4196 3.44477 32.1845C2.59585 32.9495 2.02951 34.01 1.8465 35.1775L1.06402 40.1775C0.951731 40.8939 0.987469 41.6277 1.16875 42.3278C1.35003 43.028 1.6725 43.6778 2.11374 44.2319C2.55497 44.7861 3.10438 45.2313 3.72373 45.5366C4.34309 45.842 5.01754 46.0001 5.70016 46H14.251" stroke="white" stroke-width="2" stroke-linecap="round" stroke-linejoin="round"/>
<path d="M44.7983 31H45.5174C46.6299 30.9999 47.7063 31.4196 48.5552 32.1845C49.4042 32.9495 49.9705 34.01 50.1535 35.1775L50.936 40.1775C51.0483 40.8939 51.0125 41.6277 50.8313 42.3278C50.65 43.028 50.3275 43.6778 49.8863 44.2319C49.445 44.7861 48.8956 45.2313 48.2763 45.5366C47.6569 45.842 46.9825 46.0001 46.2999 46H37.749" fill="white"/>
<path d="M44.7983 31H45.5174C46.6299 30.9999 47.7063 31.4196 48.5552 32.1845C49.4042 32.9495 49.9705 34.01 50.1535 35.1775L50.936 40.1775C51.0483 40.8939 51.0125 41.6277 50.8313 42.3278C50.65 43.028 50.3275 43.6778 49.8863 44.2319C49.445 44.7861 48.8956 45.2313 48.2763 45.5366C47.6569 45.842 46.9825 46.0001 46.2999 46H37.749" stroke="white" stroke-width="2" stroke-linecap="round" stroke-linejoin="round"/>
</svg>
