<svg width="46" height="46" viewBox="0 0 46 46" fill="none" xmlns="http://www.w3.org/2000/svg">
<path d="M13.5 0.5C15.6549 0.5 17.7215 1.35602 19.2452 2.87976C20.769 4.40349 21.625 6.47012 21.625 8.625C21.625 10.7799 20.769 12.8465 19.2452 14.3702C17.7215 15.894 15.6549 16.75 13.5 16.75C11.3451 16.75 9.27849 15.894 7.75476 14.3702C6.23102 12.8465 5.375 10.7799 5.375 8.625C5.375 6.47012 6.23102 4.40349 7.75476 2.87976C9.27849 1.35602 11.3451 0.5 13.5 0.5ZM24.9888 14.6733C24.1563 13.7775 23.5934 12.665 23.3647 11.4637C23.1361 10.2624 23.251 9.0209 23.6962 7.88193C24.1414 6.74297 24.8989 5.7527 25.8816 5.02489C26.8643 4.29709 28.0324 3.86127 29.2517 3.7675C30.471 3.67374 31.692 3.92584 32.7745 4.49484C33.8569 5.06384 34.7569 5.92665 35.371 6.98416C35.9852 8.04166 36.2885 9.25096 36.2462 10.4731C36.2039 11.6953 35.8177 12.8807 35.132 13.8932C31.7465 13.1694 28.2238 13.4403 24.9888 14.6733ZM14.1727 36.25H13.695C5.1995 36.25 0.5 33.3185 0.5 27.397V24.875C0.5 23.5821 1.01361 22.3421 1.92785 21.4279C2.84209 20.5136 4.08207 20 5.375 20H17.5853C14.9388 23.1993 13.4937 27.223 13.5 31.375C13.5 33.065 13.734 34.6997 14.1727 36.25ZM31.375 46C35.2538 46 38.9737 44.4592 41.7164 41.7164C44.4592 38.9737 46 35.2538 46 31.375C46 27.4962 44.4592 23.7763 41.7164 21.0336C38.9737 18.2908 35.2538 16.75 31.375 16.75C27.4962 16.75 23.7763 18.2908 21.0336 21.0336C18.2908 23.7763 16.75 27.4962 16.75 31.375C16.75 35.2538 18.2908 38.9737 21.0336 41.7164C23.7763 44.4592 27.4962 46 31.375 46ZM39.0255 27.6505L29.2755 37.4005C29.1246 37.5518 28.9452 37.6719 28.7478 37.7538C28.5504 37.8357 28.3387 37.8779 28.125 37.8779C27.9113 37.8779 27.6996 37.8357 27.5022 37.7538C27.3048 37.6719 27.1254 37.5518 26.9745 37.4005L23.7245 34.1505C23.4194 33.8454 23.2479 33.4315 23.2479 33C23.2479 32.5685 23.4194 32.1546 23.7245 31.8495C24.0296 31.5444 24.4435 31.3729 24.875 31.3729C25.3065 31.3729 25.7204 31.5444 26.0255 31.8495L28.125 33.9523L36.7245 25.3495C37.0296 25.0444 37.4435 24.8729 37.875 24.8729C38.3065 24.8729 38.7204 25.0444 39.0255 25.3495C39.3306 25.6546 39.5021 26.0685 39.5021 26.5C39.5021 26.9315 39.3306 27.3454 39.0255 27.6505Z" fill="white"/>
</svg>
